<?xml version="1.0" encoding="UTF-8"?>
<!-- Generator: visioncortex VTracer 0.6.3 -->
<svg version="1.1" xmlns="http://www.w3.org/2000/svg" width="512" height="511">
<path d="M0 0 C11.19 10.05 21.95 20.49 31.11 32.45 C31.62 33.11 32.13 33.76 32.66 34.44 C50.57 57.52 64.44 83.3 73.37 111.14 C74.05 113.27 74.76 115.38 75.47 117.5 C81.74 136.75 85.2 157.77 85.31 178.02 C85.32 178.9 85.33 179.78 85.33 180.69 C85.35 183.5 85.36 186.32 85.36 189.14 C85.36 190.1 85.36 191.06 85.36 192.06 C85.35 206.39 84.93 220.35 82.11 234.45 C81.93 235.36 81.76 236.27 81.57 237.2 C74.91 270.62 62.52 304.89 42.11 332.45 C41.68 333.04 41.25 333.64 40.8 334.25 C26.3 354.27 9.94 373.5 -9.89 388.45 C-10.43 388.86 -10.97 389.28 -11.52 389.7 C-21.52 397.39 -31.98 404.14 -42.89 410.45 C-43.57 410.84 -44.25 411.24 -44.94 411.64 C-70.92 426.58 -100.33 435.98 -129.89 440.45 C-131.01 440.63 -132.14 440.8 -133.29 440.98 C-144.9 442.64 -156.42 442.85 -168.14 442.82 C-169.15 442.82 -170.17 442.82 -171.21 442.82 C-187.74 442.77 -203.68 441.93 -219.89 438.45 C-221 438.21 -222.1 437.98 -223.25 437.73 C-260.99 429.38 -296.88 412.93 -326.89 388.45 C-327.86 387.68 -328.83 386.91 -329.84 386.12 C-345.48 373.39 -360.08 358.82 -371.89 342.45 C-372.72 341.35 -373.55 340.25 -374.38 339.15 C-396.34 309.76 -410.88 274.83 -418.2 239.01 C-418.35 238.29 -418.5 237.57 -418.65 236.83 C-421.59 221.36 -422.26 206.04 -422.2 190.32 C-422.2 189.33 -422.2 188.34 -422.2 187.31 C-422.15 172.84 -421.85 158.66 -418.89 144.45 C-418.69 143.47 -418.49 142.5 -418.29 141.49 C-409.36 98.82 -391.46 59.57 -362.89 26.45 C-362.26 25.7 -361.62 24.96 -360.97 24.19 C-349.65 11.25 -337.46 -1.19 -323.55 -11.34 C-321.88 -12.56 -320.23 -13.8 -318.58 -15.05 C-238.67 -74.72 -124.14 -79.03 0 0 Z " fill="#120C29" transform="translate(424.890625,65.55078125)"/>
<path d="M0 0 C18.68 16.99 30.82 38.11 37.21 62.43 C37.54 63.64 37.87 64.85 38.21 66.1 C41.11 78.86 40.85 92.11 41.05 105.14 C41.15 108.9 41.42 112.65 41.69 116.4 C42.24 124.46 42.52 132.51 42.74 140.57 C42.79 142.1 42.83 143.62 42.88 145.14 C43.01 149.99 43.14 154.83 43.27 159.68 C43.29 160.51 43.32 161.33 43.34 162.18 C44.44 204.03 44.44 204.03 44.56 221.27 C44.58 223.02 44.6 224.77 44.63 226.53 C44.79 237.84 44.22 248.11 36.11 256.83 C28.38 263.33 19.18 267.01 9.12 266.73 C-1.18 265.69 -8.12 260.3 -15.82 253.89 C-18.72 251.41 -18.72 251.41 -21.79 249.43 C-21.79 248.77 -21.79 248.11 -21.79 247.43 C-22.38 247.17 -22.97 246.9 -23.57 246.63 C-26.51 245.04 -28.63 242.89 -31.01 240.58 C-32.7 239.27 -32.7 239.27 -34.63 239.44 C-37.84 240.91 -40.3 243.18 -42.92 245.5 C-44.08 246.5 -45.25 247.51 -46.41 248.51 C-46.99 249.01 -47.56 249.51 -48.15 250.02 C-71.69 270.27 -71.69 270.27 -86.96 269.78 C-98.51 268.36 -106.21 261.81 -114.58 254.36 C-120.49 249.2 -126.66 244.33 -132.79 239.43 C-137.65 240.95 -140.76 243.74 -144.48 247.06 C-145.72 248.14 -146.97 249.23 -148.22 250.32 C-148.83 250.85 -149.44 251.38 -150.06 251.93 C-160.16 260.73 -169.04 266.92 -182.79 266.7 C-192.98 265.8 -200.02 260.84 -206.79 253.43 C-212.15 246.61 -214.07 239.7 -213.98 231.01 C-213.97 230.25 -213.96 229.49 -213.95 228.71 C-213.79 215.97 -213.31 203.23 -212.88 190.49 C-212.8 188.19 -212.72 185.88 -212.65 183.58 C-212.4 176.32 -212.16 169.07 -211.9 161.82 C-211.62 153.52 -211.34 145.22 -211.07 136.91 C-210.86 130.44 -210.64 123.97 -210.42 117.5 C-210.28 113.66 -210.15 109.82 -210.03 105.98 C-208.82 67.55 -208.82 67.55 -202.54 51.75 C-202.08 50.56 -202.08 50.56 -201.62 49.35 C-190.05 19.95 -169.62 -3.55 -141.79 -18.57 C-140.77 -19.12 -139.74 -19.68 -138.69 -20.25 C-93.24 -42.91 -37.46 -32.79 0 0 Z " fill="#958AB4" transform="translate(335.79052734375,135.5673828125)"/>
<path d="M0 0 C18.68 16.99 30.82 38.11 37.21 62.43 C37.54 63.64 37.87 64.85 38.21 66.1 C41.11 78.86 40.85 92.11 41.05 105.14 C41.15 108.9 41.42 112.65 41.69 116.4 C42.24 124.46 42.52 132.51 42.74 140.57 C42.79 142.1 42.83 143.62 42.88 145.14 C43.01 149.99 43.14 154.83 43.27 159.68 C43.29 160.51 43.32 161.33 43.34 162.18 C44.44 204.03 44.44 204.03 44.56 221.27 C44.58 223.02 44.6 224.77 44.63 226.53 C44.79 237.84 44.22 248.11 36.11 256.83 C28.38 263.33 19.18 267.01 9.12 266.73 C-1.18 265.69 -8.12 260.3 -15.82 253.89 C-18.72 251.41 -18.72 251.41 -21.79 249.43 C-21.79 248.77 -21.79 248.11 -21.79 247.43 C-22.38 247.17 -22.97 246.9 -23.57 246.63 C-26.51 245.04 -28.63 242.89 -31.01 240.58 C-32.7 239.27 -32.7 239.27 -34.63 239.44 C-37.84 240.91 -40.3 243.18 -42.92 245.5 C-44.08 246.5 -45.25 247.51 -46.41 248.51 C-46.99 249.01 -47.56 249.51 -48.15 250.02 C-71.69 270.27 -71.69 270.27 -86.96 269.78 C-98.51 268.36 -106.21 261.81 -114.58 254.36 C-120.49 249.2 -126.66 244.33 -132.79 239.43 C-137.65 240.95 -140.76 243.74 -144.48 247.06 C-145.72 248.14 -146.97 249.23 -148.22 250.32 C-148.83 250.85 -149.44 251.38 -150.06 251.93 C-160.16 260.73 -169.04 266.92 -182.79 266.7 C-192.98 265.8 -200.02 260.84 -206.79 253.43 C-212.15 246.61 -214.07 239.7 -213.98 231.01 C-213.97 230.25 -213.96 229.49 -213.95 228.71 C-213.79 215.97 -213.31 203.23 -212.88 190.49 C-212.8 188.19 -212.72 185.88 -212.65 183.58 C-212.4 176.32 -212.16 169.07 -211.9 161.82 C-211.62 153.52 -211.34 145.22 -211.07 136.91 C-210.86 130.44 -210.64 123.97 -210.42 117.5 C-210.28 113.66 -210.15 109.82 -210.03 105.98 C-208.82 67.55 -208.82 67.55 -202.54 51.75 C-202.08 50.56 -202.08 50.56 -201.62 49.35 C-190.05 19.95 -169.62 -3.55 -141.79 -18.57 C-140.77 -19.12 -139.74 -19.68 -138.69 -20.25 C-93.24 -42.91 -37.46 -32.79 0 0 Z M-116.79 -12.57 C-117.89 -12.22 -118.99 -11.87 -120.13 -11.5 C-133.22 -6.94 -145.41 0.27 -155.79 9.43 C-156.68 10.2 -157.56 10.97 -158.48 11.76 C-162.64 15.41 -166.52 18.93 -169.79 23.43 C-169.79 24.09 -169.79 24.75 -169.79 25.43 C-170.45 25.43 -171.11 25.43 -171.79 25.43 C-190.33 48.21 -194.18 76.45 -195.06 104.73 C-195.14 107.05 -195.22 109.37 -195.31 111.69 C-195.48 116.54 -195.65 121.39 -195.8 126.25 C-196 132.31 -196.21 138.36 -196.43 144.42 C-196.99 159.76 -197.44 175.09 -197.79 190.43 C-197.82 191.61 -197.85 192.79 -197.88 194 C-198.04 200.92 -198.16 207.83 -198.24 214.75 C-198.26 216.88 -198.3 219.01 -198.34 221.14 C-198.4 224.07 -198.43 227 -198.44 229.93 C-198.46 230.78 -198.49 231.63 -198.51 232.51 C-198.47 238.93 -196.34 242.92 -191.79 247.43 C-186.96 250.79 -182.74 252.27 -176.79 251.43 C-169.59 249.48 -164.86 245.07 -159.54 240.01 C-156.29 236.96 -152.86 234.21 -149.34 231.46 C-147.49 229.99 -145.68 228.46 -143.9 226.9 C-142.93 226.07 -141.97 225.23 -140.98 224.37 C-140.11 223.6 -139.23 222.82 -138.33 222.02 C-135.79 220.43 -135.79 220.43 -133.28 220.44 C-130.25 221.65 -128.26 223.19 -125.79 225.31 C-124.35 226.53 -124.35 226.53 -122.88 227.77 C-122.38 228.2 -121.88 228.64 -121.36 229.08 C-119.77 230.45 -118.17 231.81 -116.57 233.16 C-116.03 233.62 -115.49 234.07 -114.94 234.54 C-114.39 235 -113.85 235.46 -113.29 235.93 C-112.19 236.86 -111.1 237.79 -110 238.72 C-109.46 239.17 -108.93 239.62 -108.38 240.09 C-106.85 241.39 -105.32 242.69 -103.8 243.99 C-95.02 251.45 -95.02 251.45 -84.29 254.93 C-75.03 253.61 -68.69 247.34 -61.79 241.43 C-60.73 240.54 -59.68 239.65 -58.62 238.75 C-57.81 238.07 -57.81 238.07 -56.99 237.38 C-55.9 236.46 -54.81 235.54 -53.71 234.62 C-50.94 232.28 -48.2 229.91 -45.51 227.48 C-44.98 227.01 -44.45 226.54 -43.9 226.05 C-42.44 224.76 -40.99 223.45 -39.54 222.14 C-36.79 220.43 -36.79 220.43 -33.74 220.42 C-30.36 221.58 -28.65 222.94 -26.1 225.43 C-21.75 229.55 -17.26 233.4 -12.59 237.16 C-10.67 238.72 -8.78 240.29 -6.9 241.89 C2 249.63 2 249.63 13.27 251.37 C19.05 250.55 22.51 248.27 26.46 244 C29.87 239 30.46 235.12 30.37 229.09 C30.36 228.39 30.35 227.68 30.35 226.96 C30.25 220.3 30.01 213.64 29.71 206.98 C29.62 204.84 29.53 202.69 29.44 200.55 C29.31 197.45 29.18 194.35 29.04 191.25 C28.69 183.01 28.34 174.78 28 166.54 C27.97 165.7 27.93 164.87 27.9 164 C27.4 151.96 26.98 139.91 26.64 127.86 C26.6 126.76 26.6 126.76 26.57 125.64 C26.39 119.32 26.2 113.01 26.04 106.69 C25.13 70.75 18.85 41.67 -6.47 14.64 C-8.5 12.2 -8.5 12.2 -10.79 12.43 C-11.12 11.44 -11.45 10.45 -11.79 9.43 C-13.8 7.75 -15.78 6.24 -17.92 4.75 C-18.54 4.31 -19.17 3.87 -19.81 3.41 C-31.05 -4.32 -42.65 -9.89 -55.79 -13.57 C-56.64 -13.83 -57.49 -14.09 -58.37 -14.35 C-66.75 -16.73 -74.81 -17.08 -83.48 -17 C-84.18 -17 -84.89 -17 -85.61 -17 C-96.46 -16.93 -106.48 -16.11 -116.79 -12.57 Z " fill="#635A83" transform="translate(335.79052734375,135.5673828125)"/>
<path d="M0 0 C0.79 0.55 1.58 1.1 2.39 1.67 C2.92 2.11 3.45 2.55 4 3 C4 3.66 4 4.32 4 5 C4.57 5.24 5.13 5.47 5.71 5.72 C21.95 14.82 31.78 39.5 37.05 56.38 C39.72 66.32 40.15 76.4 40.46 86.65 C40.5 87.77 40.54 88.89 40.58 90.04 C40.7 93.72 40.82 97.41 40.94 101.09 C41.02 103.67 41.11 106.25 41.2 108.84 C41.4 114.94 41.6 121.04 41.8 127.14 C42.17 138.67 42.55 150.2 42.94 161.73 C43.06 165.49 43.18 169.24 43.3 173 C43.69 184.92 44.14 196.83 44.78 208.73 C45.95 230.96 45.95 230.96 41 237 C37.08 241.26 32.79 243.81 26.94 244.1 C13.76 243.51 2.74 230.12 -6.58 221.81 C-7.72 220.81 -8.86 219.81 -10 218.81 C-10.77 218.11 -10.77 218.11 -11.56 217.39 C-14.94 214.45 -17.46 212.81 -22 213 C-24.49 214.67 -26.41 216.21 -28.56 218.25 C-29.8 219.37 -31.04 220.48 -32.28 221.6 C-33.21 222.45 -33.21 222.45 -34.16 223.32 C-36.93 225.84 -39.77 228.27 -42.62 230.69 C-43.15 231.14 -43.68 231.58 -44.23 232.04 C-61.41 246.48 -61.41 246.48 -69.31 247.38 C-78.95 246.39 -85.41 239.5 -92.38 233.4 C-95.6 230.61 -98.92 227.96 -102.23 225.29 C-104.25 223.62 -106.22 221.93 -108.18 220.18 C-108.71 219.72 -109.24 219.25 -109.79 218.77 C-111.3 217.45 -112.78 216.11 -114.27 214.77 C-116.81 212.77 -116.81 212.77 -119.54 212.98 C-122.53 214.22 -124.54 215.77 -127 217.88 C-127.96 218.69 -128.92 219.5 -129.9 220.33 C-130.93 221.22 -131.97 222.11 -133 223 C-136.81 226.24 -140.63 229.47 -144.45 232.7 C-145.92 233.93 -147.38 235.17 -148.84 236.41 C-150.12 237.47 -150.12 237.47 -151.44 238.56 C-152.18 239.18 -152.92 239.8 -153.68 240.44 C-158.47 243.66 -163.31 244.67 -169 244 C-175.33 241.56 -179.83 238.13 -183 232 C-183.67 228.85 -183.63 225.81 -183.55 222.59 C-183.55 221.21 -183.55 221.21 -183.54 219.8 C-183.53 216.74 -183.48 213.68 -183.42 210.61 C-183.4 208.43 -183.38 206.25 -183.36 204.06 C-183.12 180.5 -182.38 156.95 -181.51 133.41 C-181.29 127.31 -181.09 121.22 -180.89 115.13 C-180.74 110.33 -180.56 105.53 -180.39 100.73 C-180.31 98.48 -180.23 96.24 -180.16 93.99 C-179.63 76.9 -178.6 59.04 -171.38 43.25 C-171.04 42.49 -170.71 41.73 -170.36 40.94 C-166.71 32.89 -162.27 25.11 -157 18 C-156.34 18 -155.68 18 -155 18 C-154.74 17.42 -154.47 16.85 -154.2 16.25 C-144.69 -1.58 -120.43 -14.13 -102 -20 C-100.29 -20.59 -100.29 -20.59 -98.54 -21.19 C-64.31 -31.74 -27.55 -21.22 0 0 Z M-142.31 24.5 C-159.59 44.74 -164.4 68.55 -165.19 94.38 C-165.26 96.39 -165.34 98.4 -165.41 100.41 C-165.98 116.05 -166.36 131.7 -166.67 147.35 C-166.85 156.27 -167.1 165.16 -167.56 174.06 C-168.47 192.01 -168.08 210.03 -168 228 C-163.82 228.14 -162.01 227.74 -158.69 225.12 C-157.99 224.59 -157.29 224.06 -156.57 223.51 C-156.05 223.01 -155.54 222.51 -155 222 C-155 221.34 -155 220.68 -155 220 C-154.44 219.75 -153.88 219.5 -153.31 219.25 C-150.6 217.78 -148.43 216.03 -146.06 214.06 C-145.1 213.26 -144.14 212.47 -143.15 211.64 C-138.77 207.97 -134.4 204.28 -130.04 200.58 C-129.04 199.73 -128.03 198.88 -127 198 C-126.49 197.51 -125.98 197.03 -125.46 196.53 C-121.69 193.04 -121.69 193.04 -118.54 192.84 C-114.96 194.47 -112.26 196.89 -109.38 199.5 C-108.12 200.61 -106.87 201.71 -105.62 202.81 C-105 203.36 -104.39 203.9 -103.75 204.46 C-101.38 206.54 -98.95 208.52 -96.5 210.5 C-91.54 214.52 -86.69 218.66 -81.86 222.84 C-80.75 223.79 -79.64 224.74 -78.53 225.69 C-77.13 226.89 -75.76 228.12 -74.4 229.36 C-72.13 231.12 -72.13 231.12 -69.6 231.59 C-65.68 230.7 -63.25 228.21 -60.38 225.56 C-59.12 224.45 -57.87 223.34 -56.62 222.23 C-56.01 221.68 -55.39 221.12 -54.76 220.56 C-52.37 218.45 -49.91 216.44 -47.44 214.44 C-43.92 211.59 -40.45 208.7 -37.01 205.76 C-34.35 203.49 -31.68 201.25 -29 199 C-27.78 197.98 -27.78 197.98 -26.54 196.93 C-25.85 196.38 -25.15 195.82 -24.44 195.25 C-23.86 194.78 -23.28 194.31 -22.68 193.83 C-20.39 192.7 -19.39 193.2 -17 194 C-14.73 195.78 -12.58 197.58 -10.44 199.5 C-9.18 200.6 -7.92 201.7 -6.66 202.8 C-6.04 203.35 -5.42 203.89 -4.78 204.45 C-0.61 208.08 3.71 211.52 8 215 C9.96 216.6 11.92 218.21 13.88 219.81 C15.58 221.21 17.29 222.61 19 224 C19.83 224.75 20.66 225.49 21.51 226.26 C24.38 228.26 25.61 228.16 29 228 C29.19 199.02 28.82 170.1 27.83 141.13 C27.66 136.07 27.49 131 27.34 125.93 C26.63 101.07 26.63 101.07 25.04 76.25 C24.96 75.4 24.89 74.55 24.82 73.67 C23 54.81 14.79 38.61 3 24 C2.31 23.09 2.31 23.09 1.6 22.17 C-8.74 8.98 -24.39 0.28 -40 -5 C-41.08 -5.41 -42.15 -5.82 -43.26 -6.25 C-80 -18.52 -117.31 -2.43 -142.31 24.5 Z " fill="#130E2B" transform="translate(321,143)"/>
<path d="M0 0 C2.71 1.93 5.34 3.92 7.95 5.99 C8.9 6.71 8.9 6.71 9.87 7.44 C20.75 16.11 31.84 30.58 35.95 43.99 C35.95 45.31 35.95 46.63 35.95 47.99 C34.96 48.32 33.97 48.65 32.95 48.99 C32.33 47.53 32.33 47.53 31.7 46.05 C30.3 42.87 30.3 42.87 27.76 42.11 C27.16 42.07 26.57 42.03 25.95 41.99 C25.59 42.91 25.22 43.83 24.85 44.79 C22.52 48.72 20.69 49.51 16.51 51.24 C15.38 51.72 14.25 52.2 13.08 52.69 C12.05 53.12 11.01 53.55 9.95 53.99 C8.61 54.64 7.27 55.3 5.95 55.99 C5.95 58.3 5.95 60.61 5.95 62.99 C2.01 64.1 -0.45 64 -4.18 62.55 C-11.26 59.97 -18.8 59.76 -25.86 62.55 C-33.05 66.25 -37.42 71.42 -40.05 78.99 C-41.54 78.49 -41.54 78.49 -43.05 77.99 C-43.05 76.34 -43.05 74.69 -43.05 72.99 C-42.06 72.66 -41.07 72.33 -40.05 71.99 C-39.72 71.33 -39.39 70.67 -39.05 69.99 C-38.38 68.65 -37.72 67.32 -37.05 65.99 C-35.73 65.99 -34.41 65.99 -33.05 65.99 C-33.71 64.01 -34.37 62.03 -35.05 59.99 C-34.39 59.99 -33.73 59.99 -33.05 59.99 C-32.72 60.65 -32.39 61.31 -32.05 61.99 C-31.39 61.99 -30.73 61.99 -30.05 61.99 C-29.72 61.33 -29.39 60.67 -29.05 59.99 C-29.69 59.72 -30.33 59.45 -30.99 59.18 C-33.05 57.99 -33.05 57.99 -34.05 54.99 C-21.31 48.7 -8.99 43.96 4.95 40.99 C5.61 40.66 6.27 40.33 6.95 39.99 C6.81 38.53 6.66 37.07 6.51 35.61 C6.43 34.8 6.35 33.99 6.27 33.15 C6.06 30.95 6.06 30.95 4.95 28.99 C-5.29 29.78 -14.46 33.47 -23.58 38.04 C-26.27 39.07 -28.19 39.12 -31.05 38.99 C-32.72 39.29 -34.39 39.61 -36.05 39.99 C-36.38 39.33 -36.71 38.67 -37.05 37.99 C-37.38 39.31 -37.71 40.63 -38.05 41.99 C-40.03 41.49 -40.03 41.49 -42.05 40.99 C-43.04 42.31 -44.03 43.63 -45.05 44.99 C-45.71 44.33 -46.37 43.67 -47.05 42.99 C-48.54 43.48 -48.54 43.48 -50.05 43.99 C-49.39 44.65 -48.73 45.31 -48.05 45.99 C-47.72 46.98 -47.39 47.97 -47.05 48.99 C-45.57 49.48 -45.57 49.48 -44.05 49.99 C-44.07 51.1 -44.09 52.22 -44.11 53.36 C-44.31 56.82 -44.31 56.82 -43.05 58.99 C-47.4 61.4 -51.09 61.99 -56.05 61.99 C-56.71 61.66 -57.37 61.33 -58.05 60.99 C-57.39 57.69 -56.73 54.39 -56.05 50.99 C-56.71 50.99 -57.37 50.99 -58.05 50.99 C-58.48 51.81 -58.92 52.64 -59.36 53.49 C-59.92 54.31 -60.48 55.14 -61.05 55.99 C-62.7 55.99 -64.35 55.99 -66.05 55.99 C-66.38 52.69 -66.71 49.39 -67.05 45.99 C-68.37 45.89 -69.69 45.78 -71.05 45.68 C-75.57 45.25 -79.87 44.39 -84.3 43.43 C-94.28 41.35 -104.9 41.12 -115.05 41.99 C-115.38 42.32 -115.71 42.65 -116.05 42.99 C-116.05 46.29 -116.05 49.59 -116.05 52.99 C-109.12 53.32 -102.19 53.65 -95.05 53.99 C-95.05 54.65 -95.05 55.31 -95.05 55.99 C-94.39 55.66 -93.73 55.33 -93.05 54.99 C-86.52 54.75 -86.52 54.75 -84.05 55.99 C-84.05 56.65 -84.05 57.31 -84.05 57.99 C-82.73 58.32 -81.41 58.65 -80.05 58.99 C-80.05 59.65 -80.05 60.31 -80.05 60.99 C-81.02 60.94 -81.98 60.9 -82.98 60.85 C-92.59 60.58 -99.75 61.53 -107.93 66.86 C-113.24 72.17 -114.78 77.15 -116.14 84.38 C-116.44 85.24 -116.74 86.1 -117.05 86.99 C-118.06 87.48 -118.06 87.48 -119.09 87.97 C-120.06 88.48 -120.06 88.48 -121.05 88.99 C-121.83 91.79 -121.83 91.79 -121.93 94.99 C-122.01 96.06 -122.09 97.13 -122.17 98.24 C-122.36 101.13 -122.36 101.13 -120.05 102.99 C-120.71 102.99 -121.37 102.99 -122.05 102.99 C-122.38 104.31 -122.71 105.63 -123.05 106.99 C-124.37 106.99 -125.69 106.99 -127.05 106.99 C-127.05 107.65 -127.05 108.31 -127.05 108.99 C-128.37 108.99 -129.69 108.99 -131.05 108.99 C-131.05 109.65 -131.05 110.31 -131.05 110.99 C-133.36 110.99 -135.67 110.99 -138.05 110.99 C-138.05 111.98 -138.05 112.97 -138.05 113.99 C-139.93 113.68 -139.93 113.68 -142.05 112.99 C-144.35 109.54 -144.59 107.05 -145.05 102.99 C-145.38 102.99 -145.71 102.99 -146.05 102.99 C-146.05 100.02 -146.05 97.05 -146.05 93.99 C-145.39 93.99 -144.73 93.99 -144.05 93.99 C-144.16 92.86 -144.16 92.86 -144.27 91.71 C-146.57 65.42 -144.54 42.1 -127.52 20.82 C-95.17 -16.34 -42.65 -28.13 0 0 Z " fill="#D4CCEB" transform="translate(304.05078125,149.01171875)"/>
<path d="M0 0 C2.17 3.61 2.19 6.86 2 11 C-2.38 13.4 -6.37 14.66 -11.25 15.69 C-20.73 17.84 -29.26 21.83 -38 26 C-38 26.99 -38 27.98 -38 29 C-36.68 29.66 -35.36 30.32 -34 31 C-34.66 31.99 -35.32 32.98 -36 34 C-37.49 33.5 -37.49 33.5 -39 33 C-39 34.32 -39 35.64 -39 37 C-39.64 37.27 -40.28 37.54 -40.94 37.81 C-43.33 38.89 -43.33 38.89 -44 42 C-44.66 42.29 -45.32 42.58 -46 42.88 C-48.29 43.86 -48.29 43.86 -48.75 46.62 C-48.83 47.41 -48.92 48.19 -49 49 C-48.34 49 -47.68 49 -47 49 C-45.95 47.47 -45.95 47.47 -44.94 45.5 C-41.34 39.51 -36.36 34.79 -30.19 31.5 C-20.73 30.02 -12.98 30.28 -5 36 C0.54 41 4.46 46.41 5.35 53.98 C5.75 62.83 4.1 69.37 -1.83 76.07 C-7.69 81.61 -13.35 84.06 -21.38 84.5 C-29.76 84.21 -35.74 80.7 -41.44 74.69 C-45.76 69.46 -47.36 64.55 -49 58 C-55.93 59.49 -55.93 59.49 -63 61 C-63.33 63.97 -63.66 66.94 -64 70 C-65.65 70 -67.3 70 -69 70 C-69 66.48 -68.18 65.63 -66 63 C-66.66 63 -67.32 63 -68 63 C-68.5 64.49 -68.5 64.49 -69 66 C-69.33 65.01 -69.66 64.02 -70 63 C-70.33 63.79 -70.66 64.57 -71 65.38 C-74.96 74.14 -79.27 79.14 -87.88 83.44 C-97.96 85.25 -105.44 83.89 -114 78 C-116.51 75.56 -118.3 73.05 -120 70 C-120.62 68.91 -121.24 67.81 -121.88 66.69 C-124.2 59.07 -123.85 52.11 -120.18 45 C-115.56 37.19 -109.42 33.81 -101 31 C-95.95 30.71 -90.91 30.69 -86 32 C-86 31.34 -86 30.68 -86 30 C-87.32 29.67 -88.64 29.34 -90 29 C-90 28.34 -90 27.68 -90 27 C-93.63 27 -97.26 27 -101 27 C-101 26.34 -101 25.68 -101 25 C-101.63 25.01 -102.26 25.01 -102.91 25.02 C-105.75 25.04 -108.6 25.05 -111.44 25.06 C-112.93 25.08 -112.93 25.08 -114.45 25.09 C-115.39 25.09 -116.34 25.09 -117.31 25.1 C-118.62 25.11 -118.62 25.11 -119.96 25.11 C-122 25 -122 25 -123 24 C-123.12 22.36 -123.18 20.71 -123.19 19.06 C-123.2 18.17 -123.22 17.27 -123.23 16.35 C-123 14 -123 14 -121 12 C-117.65 11.54 -114.25 11.67 -110.88 11.69 C-109.89 11.69 -108.9 11.69 -107.88 11.69 C-100.47 11.79 -93.6 12.69 -86.38 14.27 C-83.44 14.9 -80.61 15.34 -77.62 15.62 C-74 16 -74 16 -72 17 C-72 20.3 -72 23.6 -72 27 C-69.59 26.89 -69.59 26.89 -67 26 C-65.16 23.54 -65.16 23.54 -64 21 C-63.01 21.33 -62.02 21.66 -61 22 C-61.75 28.62 -61.75 28.62 -64 32 C-61.6 32.68 -61.6 32.68 -59 33 C-58.01 32.01 -58.01 32.01 -57 31 C-55.34 30.63 -53.67 30.29 -52 30 C-51.01 29.5 -51.01 29.5 -50 29 C-50.5 28.01 -50.5 28.01 -51 27 C-50.72 24.99 -50.39 22.99 -50 21 C-50.64 20.88 -51.28 20.75 -51.94 20.62 C-52.62 20.42 -53.3 20.21 -54 20 C-55 18 -55 18 -56 15 C-55.34 15 -54.68 15 -54 15 C-53.67 14.34 -53.34 13.68 -53 13 C-52.01 13.99 -52.01 13.99 -51 15 C-49.68 13.68 -48.36 12.36 -47 11 C-46.01 11.33 -45.02 11.66 -44 12 C-43.67 11.01 -43.34 10.02 -43 9 C-41.35 9.66 -39.7 10.32 -38 11 C-37.67 10.34 -37.34 9.68 -37 9 C-35.45 8.78 -35.45 8.78 -33.86 8.55 C-29.83 7.98 -26.93 6.83 -23.25 5.12 C-6.97 -2.16 -6.97 -2.16 0 0 Z " fill="#B4ABD0" transform="translate(310,178)"/>
<path d="M0 0 C2.52 2.25 4.97 4.56 7.38 6.94 C7.92 7.47 8.46 8 9.02 8.55 C11.87 11.47 13.96 14.01 15 18 C14.67 18.66 14.34 19.32 14 20 C14.66 20.33 15.32 20.66 16 21 C17.19 23.44 17.19 23.44 18 26 C17.67 26.66 17.34 27.32 17 28 C14.69 28 12.38 28 10 28 C9.67 28.66 9.34 29.32 9 30 C8.67 28.35 8.34 26.7 8 25 C7.34 25 6.68 25 6 25 C5.34 22.69 4.68 20.38 4 18 C3.38 18.21 2.76 18.41 2.12 18.62 C1.42 18.75 0.72 18.87 0 19 C-2 17 -2 17 -3 15 C-3.91 14.9 -4.81 14.79 -5.75 14.69 C-9.95 13.8 -11.04 12.09 -14 9 C-25.86 -0.48 -39.45 -6.93 -54 -11 C-54.85 -11.26 -55.7 -11.52 -56.58 -11.79 C-64.96 -14.16 -73.02 -14.52 -81.69 -14.44 C-82.39 -14.43 -83.1 -14.43 -83.82 -14.43 C-94.67 -14.37 -104.69 -13.54 -115 -10 C-116.1 -9.65 -117.2 -9.3 -118.34 -8.94 C-131.45 -4.36 -143.58 2.85 -154 12 C-154.8 12.67 -155.6 13.34 -156.43 14.03 C-161.1 18.01 -164.54 21.96 -168 27 C-168.66 27 -169.32 27 -170 27 C-170.38 28.06 -170.38 28.06 -170.77 29.14 C-172.12 32.28 -173.81 34.9 -175.69 37.75 C-189.1 59.07 -191.5 82.34 -193 107 C-193.33 106.34 -193.66 105.68 -194 105 C-194.66 105 -195.32 105 -196 105 C-195.67 106.32 -195.34 107.64 -195 109 C-195.66 109 -196.32 109 -197 109 C-196.17 111.17 -196.17 111.17 -194 112 C-195.71 120.57 -195.71 120.57 -200 124 C-200.33 123.01 -200.66 122.02 -201 121 C-201.66 120.67 -202.32 120.34 -203 120 C-202.67 119.01 -202.34 118.02 -202 117 C-202.66 117 -203.32 117 -204 117 C-204 117.99 -204 118.98 -204 120 C-204.66 120 -205.32 120 -206 120 C-206.03 115.31 -206.04 110.62 -206.05 105.93 C-206.06 104.34 -206.07 102.75 -206.08 101.16 C-206.28 64.05 -197.43 34.65 -172 7 C-171.37 6.3 -170.75 5.61 -170.11 4.89 C-125.4 -42.53 -47.75 -40.53 0 0 Z " fill="#E4DCF7" transform="translate(334,134)"/>
<path d="M0 0 C19.22 6.92 34.1 25.1 43.39 42.62 C45.19 46.47 46 48.65 46 53 C44.51 53.5 44.51 53.5 43 54 C42.59 53.03 42.18 52.06 41.75 51.06 C40.35 47.88 40.35 47.88 37.81 47.12 C37.21 47.08 36.62 47.04 36 47 C35.64 47.92 35.28 48.85 34.9 49.8 C32.57 53.73 30.74 54.52 26.56 56.25 C25.43 56.73 24.3 57.21 23.13 57.7 C22.1 58.13 21.06 58.56 20 59 C18.66 59.65 17.32 60.31 16 61 C16 63.31 16 65.62 16 68 C12.06 69.11 9.6 69.01 5.88 67.56 C-1.21 64.99 -8.75 64.77 -15.81 67.56 C-23 71.27 -27.37 76.43 -30 84 C-30.99 83.67 -31.98 83.34 -33 83 C-33 81.35 -33 79.7 -33 78 C-32.01 77.67 -31.02 77.34 -30 77 C-29.67 76.34 -29.34 75.68 -29 75 C-28.33 73.67 -27.67 72.33 -27 71 C-25.68 71 -24.36 71 -23 71 C-23.66 69.02 -24.32 67.04 -25 65 C-24.34 65 -23.68 65 -23 65 C-22.67 65.66 -22.34 66.32 -22 67 C-21.34 67 -20.68 67 -20 67 C-19.67 66.34 -19.34 65.68 -19 65 C-19.64 64.73 -20.28 64.46 -20.94 64.19 C-23 63 -23 63 -24 60 C-11.26 53.71 1.06 48.97 15 46 C15.66 45.67 16.32 45.34 17 45 C16.86 43.54 16.71 42.08 16.56 40.62 C16.48 39.81 16.4 39 16.32 38.16 C16.11 35.96 16.11 35.96 15 34 C4.76 34.79 -4.41 38.48 -13.53 43.05 C-16.22 44.09 -18.14 44.13 -21 44 C-22.67 44.3 -24.34 44.62 -26 45 C-26.33 44.34 -26.66 43.68 -27 43 C-27.33 44.32 -27.66 45.64 -28 47 C-29.32 46.67 -30.64 46.34 -32 46 C-32.99 47.32 -33.98 48.64 -35 50 C-35.66 49.34 -36.32 48.68 -37 48 C-38.49 48.5 -38.49 48.5 -40 49 C-39.34 49.66 -38.68 50.32 -38 51 C-37.67 51.99 -37.34 52.98 -37 54 C-36.01 54.33 -35.02 54.66 -34 55 C-34.02 56.11 -34.04 57.23 -34.06 58.38 C-34.26 61.83 -34.26 61.83 -33 64 C-37.35 66.42 -41.04 67 -46 67 C-46.66 66.67 -47.32 66.34 -48 66 C-47.34 62.7 -46.68 59.4 -46 56 C-46.66 56 -47.32 56 -48 56 C-48.43 56.82 -48.87 57.65 -49.31 58.5 C-49.87 59.32 -50.43 60.15 -51 61 C-52.65 61 -54.3 61 -56 61 C-56.33 57.7 -56.66 54.4 -57 51 C-59.38 50.81 -59.38 50.81 -61.81 50.62 C-65.49 50.34 -66.84 50.11 -70 48 C-68.51 47.5 -68.51 47.5 -67 47 C-67 46.34 -67 45.68 -67 45 C-66.53 44.55 -66.05 44.09 -65.56 43.62 C-63.61 41.87 -63.61 41.87 -63 38 C-58.38 37.67 -53.76 37.34 -49 37 C-48.9 35.64 -48.79 34.28 -48.69 32.88 C-47.71 25.09 -47.71 25.09 -45 22 C-41.9 21.46 -38.96 21.31 -35.81 21.3 C-32.98 21.31 -32.98 21.31 -31.57 19.49 C-30 18 -30 18 -26.64 17.71 C-24.75 17.76 -24.75 17.76 -22.81 17.81 C-21.54 17.84 -20.27 17.87 -18.96 17.89 C-17.49 17.95 -17.49 17.95 -16 18 C-16.66 16.68 -17.32 15.36 -18 14 C-19.98 14 -21.96 14 -24 14 C-24 10.67 -24 7.33 -24 4 C-7 4 -7 4 -5 5 C-2.39 4.11 -2.39 4.11 0 3 C0 2.01 0 1.02 0 0 Z " fill="#C3B9DC" transform="translate(294,144)"/>
<path d="M0 0 C0.33 0 0.66 0 1 0 C0.67 15.18 0.34 30.36 0 46 C0.66 46 1.32 46 2 46 C2 45.01 2 44.02 2 43 C2.66 43 3.32 43 4 43 C4.14 43.62 4.29 44.24 4.44 44.88 C4.93 47.03 4.93 47.03 6 49 C6.29 48.07 6.58 47.14 6.88 46.19 C8 43 8 43 10 40 C10 39.34 10 38.68 10 38 C9.01 37.67 8.02 37.34 7 37 C7.66 37 8.32 37 9 37 C9.5 34.03 9.5 34.03 10 31 C10.66 31 11.32 31 12 31 C12.33 27.7 12.66 24.4 13 21 C13.33 21 13.66 21 14 21 C14.08 31.42 13.89 41.79 13.44 52.2 C13.27 56.38 13.1 60.55 12.93 64.73 C12.9 65.6 12.86 66.47 12.82 67.37 C11.24 105.69 11.24 105.69 10.52 144.04 C10.51 146.08 10.48 148.12 10.45 150.16 C10.41 152.92 10.4 155.68 10.41 158.45 C10.38 159.61 10.38 159.61 10.36 160.8 C10.43 166.44 12.2 169.86 16 174 C19.49 176.73 23.08 177.87 27.44 178.5 C36.43 177.24 41.77 172.73 48.25 166.58 C51.5 163.53 54.93 160.77 58.45 158.03 C60.3 156.56 62.11 155.03 63.89 153.47 C64.86 152.63 65.82 151.8 66.81 150.94 C67.69 150.16 68.56 149.39 69.46 148.59 C72 147 72 147 74.53 147.05 C77.34 148.13 79.38 149.45 81.75 151.31 C82.53 151.91 83.31 152.5 84.11 153.11 C86.16 155.16 86.66 156.17 87 159 C87 162.62 86.08 164.08 84 167 C81 168 81 168 78.12 167.44 C74.07 166.87 71.74 167.69 68.45 170.16 C66.71 171.62 65.01 173.11 63.31 174.62 C62.07 175.71 60.82 176.8 59.57 177.88 C58.96 178.41 58.35 178.95 57.73 179.49 C47.64 188.3 38.75 194.49 25 194.27 C14.82 193.36 7.77 188.41 1 181 C-4.35 174.19 -6.28 167.28 -6.19 158.6 C-6.18 157.84 -6.18 157.08 -6.17 156.3 C-6 143.43 -5.48 130.56 -5.02 117.7 C-4.91 114.58 -4.8 111.46 -4.7 108.35 C-4.44 101 -4.18 93.65 -3.92 86.3 C-3.65 78.74 -3.39 71.18 -3.12 63.61 C-2.9 57.09 -2.67 50.56 -2.44 44.04 C-2.3 40.15 -2.17 36.27 -2.03 32.38 C-1.91 28.74 -1.78 25.1 -1.65 21.46 C-1.57 19.49 -1.51 17.52 -1.44 15.56 C-1.4 14.38 -1.35 13.2 -1.31 11.99 C-1.26 10.46 -1.26 10.46 -1.2 8.91 C-0.99 5.89 -0.54 2.97 0 0 Z " fill="#847AA3" transform="translate(128,208)"/>
<path d="M0 0 C0.33 0 0.66 0 1 0 C1.4 11.35 1.79 22.7 2.17 34.05 C2.35 39.32 2.53 44.6 2.72 49.87 C3.76 79.26 4.21 108.59 4 138 C-1.1 138.26 -2.78 136.97 -6.62 133.56 C-7.69 132.63 -8.76 131.71 -9.83 130.78 C-10.36 130.31 -10.89 129.84 -11.44 129.35 C-13.71 127.39 -16.04 125.51 -18.38 123.62 C-23.37 119.55 -28.27 115.37 -33.14 111.16 C-34.25 110.21 -35.36 109.26 -36.47 108.31 C-37.88 107.1 -39.24 105.85 -40.6 104.58 C-42.87 102.77 -42.87 102.77 -45.52 103 C-48.56 104.22 -50.33 105.79 -52.69 108.06 C-55.95 111.12 -59.23 114.05 -62.75 116.81 C-66.93 120.1 -70.97 123.52 -75 127 C-76.78 128.53 -78.56 130.05 -80.34 131.57 C-81.87 132.89 -83.41 134.22 -84.94 135.55 C-85.81 136.27 -86.67 137 -87.56 137.75 C-88.31 138.38 -89.05 139.02 -89.82 139.67 C-92.61 141.37 -93.78 141.66 -97 141 C-99.39 139.26 -101.47 137.55 -103.62 135.56 C-104.88 134.45 -106.13 133.33 -107.38 132.22 C-108 131.67 -108.61 131.12 -109.25 130.55 C-111.61 128.46 -114.05 126.48 -116.5 124.5 C-121.41 120.52 -126.21 116.41 -130.97 112.25 C-133.86 109.74 -136.78 107.4 -139.92 105.2 C-140.94 104.48 -141.95 103.75 -143 103 C-143 102.67 -143 102.34 -143 102 C-140.62 101.81 -140.62 101.81 -138 102 C-137.34 102.99 -136.68 103.98 -136 105 C-135.34 105 -134.68 105 -134 105 C-134.66 104.34 -135.32 103.68 -136 103 C-135.34 103 -134.68 103 -134 103 C-133.5 102.01 -133.5 102.01 -133 101 C-132.01 101.99 -131.02 102.98 -130 104 C-130 103.34 -130 102.68 -130 102 C-127.53 101.01 -127.53 101.01 -125 100 C-125 102.97 -125 105.94 -125 109 C-122.53 108.5 -122.53 108.5 -120 108 C-120 109.98 -120 111.96 -120 114 C-118.68 114.33 -117.36 114.66 -116 115 C-116 115.66 -116 116.32 -116 117 C-114.02 116.5 -114.02 116.5 -112 116 C-112 116.66 -112 117.32 -112 118 C-112.99 118.5 -112.99 118.5 -114 119 C-112.51 119.99 -112.51 119.99 -111 121 C-110.34 120.67 -109.68 120.34 -109 120 C-108.59 120.45 -108.18 120.91 -107.75 121.38 C-105.94 123.06 -104.25 123.99 -102 125 C-101.34 124.34 -100.68 123.68 -100 123 C-96.88 122.88 -96.88 122.88 -94 123 C-93.67 122.34 -93.34 121.68 -93 121 C-90.35 120.41 -87.71 120.26 -85 120 C-84.91 118.84 -84.91 118.84 -84.82 117.66 C-84.73 116.66 -84.65 115.66 -84.56 114.62 C-84.48 113.63 -84.4 112.63 -84.32 111.6 C-84 109 -84 109 -83 107 C-78.38 107 -73.76 107 -69 107 C-69 103.7 -69 100.4 -69 97 C-67.89 96.99 -66.78 96.97 -65.64 96.96 C-64.18 96.91 -62.71 96.86 -61.25 96.81 C-60.52 96.81 -59.79 96.8 -59.04 96.79 C-56.58 96.74 -56.58 96.74 -53 96 C-51.64 94.36 -50.3 92.69 -49 91 C-45.77 90.51 -45.77 90.51 -42.25 90.69 C-41.08 90.73 -39.91 90.78 -38.7 90.82 C-37.81 90.88 -36.92 90.94 -36 91 C-36.01 90.36 -36.02 89.72 -36.04 89.07 C-36.04 88.24 -36.05 87.41 -36.06 86.56 C-36.07 85.74 -36.09 84.92 -36.1 84.07 C-36 82 -36 82 -35 81 C-32.65 80.76 -30.29 80.59 -27.94 80.44 C-26.65 80.35 -25.36 80.27 -24.03 80.18 C-23.03 80.12 -22.03 80.06 -21 80 C-21 79.01 -21 78.02 -21 77 C-19.81 76.97 -18.62 76.95 -17.39 76.92 C-15.82 76.87 -14.25 76.81 -12.69 76.75 C-11.9 76.74 -11.12 76.72 -10.31 76.71 C-5.68 76.58 -5.68 76.58 -1.89 74.14 C-0.71 71.3 -1.68 69.92 -2.65 67.12 C-3.1 64.38 -2.46 62.69 -1.58 60.06 C0.28 53.67 0.38 47.73 0.29 41.11 C0.29 39.93 0.28 38.75 0.28 37.53 C0.26 33.79 0.23 30.05 0.19 26.31 C0.17 23.76 0.16 21.21 0.15 18.66 C0.11 12.44 0.06 6.22 0 0 Z " fill="#766D97" transform="translate(346,233)"/>
<path d="M0 0 C6.47 3.57 12.02 9.18 14.87 16.03 C16.4 24.62 15.05 31.83 10.78 39.39 C6.65 45.09 0.91 49.76 -6.13 51.03 C-15.01 52.21 -21.76 50.1 -29.13 45.03 C-31.64 42.59 -33.42 40.08 -35.13 37.03 C-35.75 35.94 -36.37 34.84 -37 33.72 C-39.33 26.1 -38.97 19.14 -35.31 12.03 C-28.16 -0.03 -13.18 -5.73 0 0 Z " fill="#110D29" transform="translate(225.12890625,210.96875)"/>
<path d="M0 0 C5.85 4.19 10.31 9.64 12.26 16.62 C13.28 25.34 12.49 32.41 7.26 39.62 C2.03 45.51 -3.53 48.92 -11.34 49.96 C-19.63 50.42 -25.85 48.1 -32.04 42.56 C-37.53 36.77 -40.27 31.7 -41.18 23.8 C-40.81 16.37 -38.13 9.62 -33.05 4.18 C-23.46 -4.43 -11.47 -6.53 0 0 Z " fill="#120E2A" transform="translate(302.7421875,212.3828125)"/>
<path d="M0 0 C2.48 0.5 2.48 0.5 5 1 C5.33 1.99 5.66 2.98 6 4 C7.32 3.34 8.64 2.68 10 2 C11.26 4.91 12 6.8 12 10 C12.66 10 13.32 10 14 10 C14.99 11.49 14.99 11.49 16 13 C17.18 12.72 17.18 12.72 18.38 12.44 C21 12 21 12 23 13 C23 11.02 23 9.04 23 7 C22.01 6.67 21.02 6.34 20 6 C20.33 4.68 20.66 3.36 21 2 C25.35 5.95 28.15 10.17 31.06 15.25 C31.48 15.96 31.9 16.68 32.34 17.41 C37.06 25.54 40.46 33.81 43.12 42.81 C43.5 44.03 43.5 44.03 43.89 45.28 C47.2 56.36 48.34 67.28 48.62 78.81 C48.66 80.12 48.7 81.42 48.73 82.76 C48.85 87.17 48.93 91.59 49 96 C49.02 97.26 49.02 97.26 49.04 98.55 C49.13 103.91 49.19 109.26 49.23 114.61 C49.24 116.37 49.26 118.12 49.28 119.87 C49.31 122.34 49.32 124.8 49.33 127.27 C49.34 128 49.35 128.74 49.37 129.51 C49.35 132.49 49.34 134.51 47.62 137 C46 138 46 138 43.81 137.69 C42.92 137.35 42.92 137.35 42 137 C42.06 137.95 42.12 138.9 42.19 139.88 C42.09 141.42 42.09 141.42 42 143 C41.01 143.66 40.02 144.32 39 145 C38.34 144.67 37.68 144.34 37 144 C37 142.35 37 140.7 37 139 C37.66 138.67 38.32 138.34 39 138 C39 137.01 39 136.02 39 135 C38.34 135 37.68 135 37 135 C35.46 125.5 34.58 116.13 34.11 106.53 C33.92 102.7 33.7 98.87 33.49 95.04 C33.41 93.5 33.32 91.96 33.24 90.42 C33.2 89.68 33.16 88.94 33.12 88.17 C33.04 86.77 32.97 85.36 32.89 83.96 C31.18 52.68 23.68 25.89 1.62 2.76 C0 1 0 1 0 0 Z " fill="#A39AC0" transform="translate(328,149)"/>
<path d="M0 0 C0.94 3.36 0.87 5.34 0.06 8.75 C-1.9 18.65 -1.51 29.12 -0.12 39.08 C0 41 0 41 -1 44 C-1.66 44 -2.32 44 -3 44 C-2.54 48.57 -2.17 51.94 0 56 C0.12 57.03 0.25 58.06 0.38 59.12 C0.68 62.13 0.68 62.13 3.06 63.38 C3.7 63.58 4.34 63.79 5 64 C5 63.01 5 62.02 5 61 C7.31 61 9.62 61 12 61 C12 60.34 12 59.68 12 59 C13.32 59 14.64 59 16 59 C16 58.34 16 57.68 16 57 C17.32 57 18.64 57 20 57 C20.8 53.71 21.1 52.29 20 49 C20.05 46.62 20.05 46.62 20.31 44 C20.43 42.7 20.43 42.7 20.55 41.38 C21 39 21 39 23 36 C24.49 36.5 24.49 36.5 26 37 C26.74 38.97 26.74 38.97 27.31 41.5 C29.25 48.35 31.74 53.69 37.67 57.89 C44.38 61.61 50.37 63.35 58 62 C64.37 60.04 70.04 56.99 73.77 51.3 C76.88 45.04 78.77 40.01 79 33 C79.33 33 79.66 33 80 33 C80.5 37.45 80.5 37.45 81 42 C81.99 41.67 82.98 41.34 84 41 C82.93 43.92 82.22 45.78 80 48 C80.19 48.8 80.37 49.61 80.56 50.44 C80.78 51.71 80.78 51.71 81 53 C79.62 54.56 79.62 54.56 78 56 C77.14 58.52 77 60.31 77 63 C73.99 63.93 73.13 64.04 70 63 C69.5 64.98 69.5 64.98 69 67 C67.35 67 65.7 67 64 67 C63.77 69.24 63.77 69.24 66 71.12 C66.66 71.74 67.32 72.36 68 73 C67.05 73.06 66.09 73.12 65.11 73.18 C63.86 73.27 62.6 73.35 61.31 73.44 C60.07 73.52 58.83 73.6 57.55 73.68 C54.62 73.94 51.87 74.35 49 75 C48.34 74.01 47.68 73.02 47 72 C44.88 71.38 44.88 71.38 42.5 71.25 C41.71 71.17 40.91 71.1 40.09 71.02 C37.94 70.84 37.94 70.84 36 72 C33.99 71.72 31.99 71.39 30 71 C29.81 72.14 29.81 72.14 29.62 73.31 C29 76 29 76 27 79 C23.88 79.19 23.88 79.19 21 79 C21 78.34 21 77.68 21 77 C19.08 77.71 17.15 78.42 15.24 79.15 C13.83 79.69 12.41 80.2 10.98 80.69 C7.71 81.9 6.24 82.56 4.56 85.69 C4.38 86.45 4.19 87.21 4 88 C3.01 87.67 2.02 87.34 1 87 C0.67 86.01 0.34 85.02 0 84 C-0.04 84.63 -0.07 85.25 -0.11 85.9 C-0.18 86.72 -0.24 87.53 -0.31 88.38 C-0.37 89.19 -0.43 90 -0.49 90.84 C-1 93 -1 93 -4 95 C-4.09 85.12 -4.16 75.25 -4.21 65.37 C-4.23 60.78 -4.26 56.2 -4.3 51.61 C-4.35 47.17 -4.37 42.72 -4.38 38.28 C-4.39 36.6 -4.4 34.92 -4.42 33.24 C-4.57 21.59 -3.16 11.22 0 0 Z " fill="#B0A7CC" transform="translate(161,199)"/>
<path d="M0 0 C0.33 0 0.66 0 1 0 C0.67 15.18 0.34 30.36 0 46 C0.66 46 1.32 46 2 46 C2 45.01 2 44.02 2 43 C2.66 43 3.32 43 4 43 C4.14 43.62 4.29 44.24 4.44 44.88 C4.93 47.03 4.93 47.03 6 49 C6.29 48.07 6.58 47.14 6.88 46.19 C8 43 8 43 10 40 C10 39.34 10 38.68 10 38 C9.01 37.67 8.02 37.34 7 37 C7.66 37 8.32 37 9 37 C9.5 34.03 9.5 34.03 10 31 C10.66 31 11.32 31 12 31 C12.33 27.7 12.66 24.4 13 21 C13.33 21 13.66 21 14 21 C14.09 32.5 13.82 43.95 13.38 55.44 C13.31 57.17 13.25 58.91 13.18 60.64 C13.01 65.18 12.84 69.71 12.67 74.25 C12.53 77.89 12.39 81.53 12.26 85.18 C11.55 104.12 10.81 123.06 10 142 C9.34 142 8.68 142 8 142 C8 142.66 8 143.32 8 144 C7.34 144 6.68 144 6 144 C6 148.95 6 153.9 6 159 C-0.15 158.41 -0.15 158.41 -2 158 C-3.29 155.43 -3 153.34 -2.96 150.51 C-2.96 149.58 -2.95 148.65 -2.94 147.69 C-2.93 146.76 -2.91 145.84 -2.9 144.89 C-2.93 142 -2.93 142 -3.51 139.19 C-3.99 136.04 -4.04 133.25 -3.91 130.08 C-3.87 128.86 -3.83 127.64 -3.78 126.38 C-3.76 125.72 -3.73 125.05 -3.71 124.36 C-3.21 111.25 -2.93 98.14 -2.74 85.02 C-2.73 84.32 -2.72 83.61 -2.71 82.88 C-2.62 76.39 -2.53 69.89 -2.45 63.4 C-2.26 48.54 -2.02 33.69 -1.53 18.84 C-1.49 17.63 -1.46 16.42 -1.42 15.18 C-1.36 13.5 -1.36 13.5 -1.3 11.78 C-1.27 10.81 -1.23 9.83 -1.2 8.83 C-0.99 5.84 -0.54 2.95 0 0 Z " fill="#B8AFD2" transform="translate(128,208)"/>
<path d="M0 0 C1.8 0.31 1.8 0.31 3.63 0.63 C4.62 0.8 4.62 0.8 5.62 0.97 C7.68 1.34 9.72 1.76 11.76 2.19 C12.97 2.44 14.19 2.69 15.44 2.95 C40.58 8.93 63.93 23.6 80.76 43.19 C82.13 45.89 82.13 45.89 82.76 48.19 C82.26 49.18 82.26 49.18 81.76 50.19 C82.42 50.52 83.08 50.85 83.76 51.19 C84.95 53.63 84.95 53.63 85.76 56.19 C85.26 57.18 85.26 57.18 84.76 58.19 C82.45 58.19 80.14 58.19 77.76 58.19 C77.26 59.18 77.26 59.18 76.76 60.19 C76.43 58.54 76.1 56.89 75.76 55.19 C75.1 55.19 74.44 55.19 73.76 55.19 C73.1 52.88 72.44 50.57 71.76 48.19 C71.14 48.4 70.52 48.6 69.88 48.82 C69.18 48.94 68.48 49.06 67.76 49.19 C65.76 47.19 65.76 47.19 64.76 45.19 C63.85 45.09 62.94 44.99 62.01 44.88 C57.81 43.99 56.72 42.28 53.76 39.19 C41.91 29.72 28.3 23.24 13.76 19.19 C12.88 18.93 12 18.68 11.1 18.41 C3.52 16.33 -3.66 15.67 -11.49 15.5 C-12.63 15.47 -13.77 15.44 -14.94 15.4 C-17.71 15.32 -20.47 15.25 -23.24 15.19 C-20.24 13.19 -20.24 13.19 -18.24 13.19 C-18.57 12.2 -18.9 11.21 -19.24 10.19 C-17.26 9.2 -15.28 8.21 -13.24 7.19 C-13.24 6.53 -13.24 5.87 -13.24 5.19 C-11.59 4.53 -9.94 3.87 -8.24 3.19 C-8.24 3.85 -8.24 4.51 -8.24 5.19 C-7.22 3.94 -7.22 3.94 -6.17 2.66 C-3.24 0.19 -3.24 0.19 0 0 Z " fill="#D8D1EF" transform="translate(266.2421875,103.80859375)"/>
<path d="M0 0 C6.6 0 13.2 0 20 0 C20 0.66 20 1.32 20 2 C20.66 1.67 21.32 1.34 22 1 C28.53 0.77 28.53 0.77 31 2 C31 2.66 31 3.32 31 4 C32.32 4.33 33.64 4.66 35 5 C35 5.66 35 6.32 35 7 C33.55 6.93 33.55 6.93 32.07 6.86 C22.47 6.59 15.3 7.54 7.12 12.88 C1.82 18.18 0.27 23.16 -1.09 30.39 C-1.39 31.25 -1.69 32.11 -2 33 C-3.01 33.49 -3.01 33.49 -4.04 33.98 C-4.69 34.32 -5.33 34.65 -6 35 C-6.78 37.81 -6.78 37.81 -6.88 41 C-6.95 42.07 -7.03 43.15 -7.12 44.25 C-7.3 47.15 -7.3 47.15 -5 49 C-5.66 49 -6.32 49 -7 49 C-7.33 50.32 -7.66 51.64 -8 53 C-9.32 53 -10.64 53 -12 53 C-12 53.66 -12 54.32 -12 55 C-13.32 55 -14.64 55 -16 55 C-16 55.66 -16 56.32 -16 57 C-18.31 57 -20.62 57 -23 57 C-23 57.99 -23 58.98 -23 60 C-24.88 59.69 -24.88 59.69 -27 59 C-29.3 55.56 -29.54 53.06 -30 49 C-30.33 49 -30.66 49 -31 49 C-31 46.03 -31 43.06 -31 40 C-30.34 40 -29.68 40 -29 40 C-29 36.04 -29 32.08 -29 28 C-28.34 27.67 -27.68 27.34 -27 27 C-26.88 26.22 -26.75 25.43 -26.62 24.62 C-26 22 -26 22 -24.31 20.19 C-21.41 18.7 -19.22 18.92 -16 19 C-15.94 18.1 -15.88 17.19 -15.82 16.26 C-15.73 15.08 -15.65 13.9 -15.56 12.69 C-15.48 11.52 -15.4 10.34 -15.32 9.14 C-15 6 -15 6 -14 3 C-11.03 3 -8.06 3 -5 3 C-4.34 4.32 -3.68 5.64 -3 7 C-1.35 6.01 0.3 5.02 2 4 C2 4.66 2 5.32 2 6 C2.39 5.48 2.78 4.97 3.19 4.44 C5 3 5 3 7.56 3.19 C10 4 10 4 12 6 C12.99 6 13.98 6 15 6 C13.68 5.34 12.36 4.68 11 4 C11 3.34 11 2.68 11 2 C5.56 1.5 5.56 1.5 0 1 C0 0.67 0 0.34 0 0 Z " fill="#C3B9DD" transform="translate(189,203)"/>
<path d="M0 0 C7.34 6.99 13.99 16.19 17 26 C17 27.32 17 28.64 17 30 C15.51 30.5 15.51 30.5 14 31 C13.59 30.03 13.18 29.06 12.75 28.06 C11.35 24.88 11.35 24.88 8.81 24.12 C8.21 24.08 7.62 24.04 7 24 C6.64 24.92 6.28 25.85 5.9 26.8 C3.57 30.73 1.74 31.52 -2.44 33.25 C-3.57 33.73 -4.7 34.21 -5.87 34.7 C-6.9 35.13 -7.94 35.56 -9 36 C-10.34 36.65 -11.68 37.31 -13 38 C-13 40.31 -13 42.62 -13 45 C-16.94 46.11 -19.4 46.01 -23.12 44.56 C-30.21 41.99 -37.75 41.77 -44.81 44.56 C-52 48.27 -56.37 53.43 -59 61 C-59.99 60.67 -60.98 60.34 -62 60 C-62 58.35 -62 56.7 -62 55 C-60.51 54.5 -60.51 54.5 -59 54 C-58.67 53.34 -58.34 52.68 -58 52 C-57.33 50.67 -56.67 49.33 -56 48 C-54.68 48 -53.36 48 -52 48 C-52.66 46.02 -53.32 44.04 -54 42 C-53.34 42 -52.68 42 -52 42 C-51.67 42.66 -51.34 43.32 -51 44 C-50.34 44 -49.68 44 -49 44 C-48.67 43.34 -48.34 42.68 -48 42 C-48.64 41.73 -49.28 41.46 -49.94 41.19 C-52 40 -52 40 -53 37 C-40.26 30.71 -27.94 25.97 -14 23 C-13.34 22.67 -12.68 22.34 -12 22 C-12.14 20.56 -12.29 19.12 -12.44 17.69 C-12.52 16.89 -12.6 16.09 -12.68 15.26 C-12.95 12.84 -12.95 12.84 -14 10 C-13.34 10 -12.68 10 -12 10 C-12 10.66 -12 11.32 -12 12 C-11.34 12 -10.68 12 -10 12 C-10 12.99 -10 13.98 -10 15 C-9.01 14.67 -8.02 14.34 -7 14 C-4.81 14.44 -4.81 14.44 -3 15 C-3 12.69 -3 10.38 -3 8 C-1.35 7.67 0.3 7.34 2 7 C1.34 4.69 0.68 2.38 0 0 Z " fill="#ADA5C9" transform="translate(323,167)"/>
<path d="M0 0 C0.33 0 0.66 0 1 0 C2.19 6.48 2.36 12.87 2.56 19.44 C2.58 20.09 2.6 20.75 2.62 21.43 C2.96 32.82 3.16 44.22 3.23 55.62 C3.24 57.37 3.26 59.12 3.28 60.87 C3.31 63.34 3.32 65.8 3.33 68.27 C3.35 69.37 3.35 69.37 3.37 70.51 C3.35 73.49 3.34 75.51 1.62 78 C0 79 0 79 -2.19 78.69 C-2.79 78.46 -3.38 78.23 -4 78 C-3.94 78.95 -3.88 79.9 -3.81 80.88 C-3.87 81.91 -3.94 82.94 -4 84 C-5.49 84.99 -5.49 84.99 -7 86 C-7.66 85.67 -8.32 85.34 -9 85 C-9 83.35 -9 81.7 -9 80 C-8.01 79.5 -8.01 79.5 -7 79 C-7 78.01 -7 77.02 -7 76 C-7.66 76 -8.32 76 -9 76 C-10.66 65.74 -11.53 55.61 -12.06 45.25 C-12.15 43.72 -12.23 42.19 -12.31 40.66 C-13.02 27.45 -13.57 14.23 -14 1 C-13.67 1 -13.34 1 -13 1 C-12.87 2.29 -12.73 3.58 -12.6 4.9 C-12.42 6.58 -12.24 8.26 -12.06 9.94 C-11.98 10.79 -11.89 11.64 -11.8 12.51 C-11.71 13.32 -11.62 14.13 -11.54 14.96 C-11.46 15.71 -11.38 16.46 -11.3 17.23 C-11.17 19.02 -11.17 19.02 -10 20 C-10 17.69 -10 15.38 -10 13 C-8.35 13.33 -6.7 13.66 -5 14 C-4.67 13.01 -4.34 12.02 -4 11 C-3.34 11 -2.68 11 -2 11 C-1.67 11.99 -1.34 12.98 -1 14 C-1.02 12.8 -1.04 11.61 -1.06 10.38 C-1.07 6.82 -0.7 3.49 0 0 Z " fill="#887DA6" transform="translate(374,208)"/>
<path d="M0 0 C0.33 0 0.66 0 1 0 C1.06 0.99 1.11 1.97 1.17 2.99 C1.38 6.72 1.59 10.45 1.8 14.18 C1.89 15.79 1.98 17.39 2.07 18.99 C2.63 29 3.25 39 4 49 C4.66 49 5.32 49 6 49 C6.62 50.88 6.62 50.88 7 53 C6.34 53.66 5.68 54.32 5 55 C4.67 55.99 4.34 56.98 4 58 C5.98 57.5 5.98 57.5 8 57 C8.5 54.03 8.5 54.03 9 51 C12 50 12 50 15 51 C15.33 42.42 15.66 33.84 16 25 C16.33 25 16.66 25 17 25 C18.22 52.99 18.11 80.98 18 109 C17.34 109 16.68 109 16 109 C16 108.01 16 107.02 16 106 C15.34 106.99 14.68 107.98 14 109 C14 107.68 14 106.36 14 105 C11.69 104.67 9.38 104.34 7 104 C2.63 94.96 3.72 83.38 3.48 73.56 C3.3 67.52 2.86 61.65 2 55.66 C0.48 44.66 0.54 33.58 0.38 22.5 C0.34 20.31 0.3 18.12 0.26 15.93 C0.16 10.62 0.08 5.31 0 0 Z " fill="#6C638C" transform="translate(361,235)"/>
<path d="M0 0 C0.33 0 0.66 0 1 0 C1.22 12.45 0.56 24.88 0 37.31 C-0.1 39.52 -0.19 41.72 -0.29 43.93 C-0.52 49.29 -0.76 54.64 -1 60 C-1.66 60 -2.32 60 -3 60 C-3 60.66 -3 61.32 -3 62 C-3.66 62 -4.32 62 -5 62 C-5 66.95 -5 71.9 -5 77 C-11.15 76.41 -11.15 76.41 -13 76 C-14.29 73.43 -14 71.34 -13.96 68.51 C-13.96 67.58 -13.95 66.65 -13.94 65.69 C-13.93 64.76 -13.91 63.84 -13.9 62.89 C-13.92 60.02 -13.92 60.02 -14.51 57.33 C-15.08 53.44 -15.02 49.68 -14.88 45.76 C-14.86 44.99 -14.83 44.22 -14.81 43.43 C-14.73 40.99 -14.65 38.56 -14.56 36.12 C-14.51 34.47 -14.46 32.81 -14.4 31.15 C-14.28 27.1 -14.14 23.05 -14 19 C-13.34 19 -12.68 19 -12 19 C-10.29 17.37 -8.62 15.71 -7 14 C-6.01 14.33 -5.02 14.66 -4 15 C-4 13.35 -4 11.7 -4 10 C-2.68 9.67 -1.36 9.34 0 9 C0 6.03 0 3.06 0 0 Z " fill="#A298C0" transform="translate(139,290)"/>
<path d="M0 0 C12.71 5.25 23.67 14.35 33.38 23.94 C33.92 24.47 34.46 25 35.01 25.55 C37.87 28.47 39.96 31.01 41 35 C40.5 35.99 40.5 35.99 40 37 C40.99 37.5 40.99 37.5 42 38 C43.19 40.44 43.19 40.44 44 43 C43.5 43.99 43.5 43.99 43 45 C40.69 45 38.38 45 36 45 C35.5 45.99 35.5 45.99 35 47 C34.67 45.35 34.34 43.7 34 42 C33.34 42 32.68 42 32 42 C31.34 39.69 30.68 37.38 30 35 C29.38 35.21 28.76 35.41 28.12 35.62 C27.42 35.75 26.72 35.87 26 36 C24 34 24 34 23 32 C22.09 31.9 21.19 31.79 20.25 31.69 C16.05 30.8 14.96 29.09 12 26 C5.44 20.88 -1.63 16.82 -9 13 C-7.68 11.68 -6.36 10.36 -5 9 C-4.01 9.99 -3.02 10.98 -2 12 C1.01 10.37 1.01 10.37 1.81 8.25 C2.07 5.16 1.11 2.86 0 0 Z " fill="#C1B9DB" transform="translate(308,117)"/>
<path d="M0 0 C2.17 3.61 2.19 6.86 2 11 C-2.38 13.4 -6.37 14.66 -11.25 15.69 C-18.59 17.35 -25.18 20.05 -31.97 23.27 C-35.65 25.01 -38.92 26.46 -43 27 C-46.02 22.77 -46.02 22.77 -45.94 19.57 C-43.64 13.29 -33.8 9.82 -27.96 7.04 C-7.6 -2.33 -7.6 -2.33 0 0 Z " fill="#16102E" transform="translate(310,178)"/>
<path d="M0 0 C0.97 0.01 1.94 0.01 2.94 0.02 C3.93 0.02 4.92 0.02 5.94 0.03 C33.92 0.44 33.92 0.44 40.81 7.33 C41 10.77 41 10.77 40.81 14.33 C38.81 16.33 38.81 16.33 36.39 16.34 C35.43 16.23 34.48 16.13 33.5 16.02 C32.56 15.92 31.61 15.82 30.64 15.72 C27.81 15.33 27.81 15.33 25.59 14.82 C22.23 14.23 18.99 14.13 15.58 14.05 C14.19 14.01 12.8 13.97 11.4 13.93 C9.22 13.88 7.04 13.83 4.86 13.78 C2.74 13.73 0.63 13.67 -1.48 13.61 C-2.75 13.58 -4.01 13.55 -5.31 13.52 C-8.19 13.33 -8.19 13.33 -9.19 12.33 C-9.31 10.69 -9.36 9.04 -9.37 7.39 C-9.39 6.5 -9.4 5.6 -9.42 4.68 C-8.87 -0.92 -4.44 0.05 0 0 Z " fill="#130E2B" transform="translate(196.186767578125,189.671142578125)"/>
<path d="M0 0 C0.33 0 0.66 0 1 0 C2.12 6.75 2.12 6.75 1 9 C0.34 9 -0.32 9 -1 9 C-1 12.3 -1 15.6 -1 19 C-0.67 19 -0.34 19 0 19 C-0.03 20.99 -0.07 22.97 -0.1 24.96 C-0.08 27.2 -0.08 27.2 1 30 C1.66 29.01 2.32 28.02 3 27 C3.99 27 4.98 27 6 27 C6.66 24.36 7.32 21.72 8 19 C7.34 18.67 6.68 18.34 6 18 C6.64 17.38 7.28 16.76 7.94 16.12 C10.04 14.17 10.04 14.17 11 12 C11.66 12.33 12.32 12.66 13 13 C12.87 13.71 12.74 14.43 12.6 15.16 C11.25 22.84 10.44 30.47 9.88 38.25 C9.79 39.39 9.7 40.53 9.61 41.7 C9.4 44.47 9.2 47.23 9 50 C8.67 49.34 8.34 48.68 8 48 C7.34 48 6.68 48 6 48 C6.33 49.32 6.66 50.64 7 52 C6.34 52 5.68 52 5 52 C5.83 54.17 5.83 54.17 8 55 C6.29 63.57 6.29 63.57 2 67 C1.67 66.01 1.34 65.02 1 64 C0.34 63.67 -0.32 63.34 -1 63 C-0.67 62.01 -0.34 61.02 0 60 C-0.66 60 -1.32 60 -2 60 C-2 60.99 -2 61.98 -2 63 C-2.66 63 -3.32 63 -4 63 C-4.03 58.31 -4.04 53.62 -4.05 48.93 C-4.06 47.34 -4.07 45.75 -4.08 44.16 C-4.24 14.07 -4.24 14.07 0 0 Z " fill="#CDC5E6" transform="translate(132,191)"/>
<path d="M0 0 C0.33 0 0.66 0 1 0 C2.25 23.99 2.1 47.98 2 72 C-3.1 72.26 -4.78 70.97 -8.62 67.56 C-9.68 66.64 -10.74 65.72 -11.8 64.8 C-12.34 64.33 -12.87 63.86 -13.42 63.38 C-15.81 61.29 -18.28 59.31 -20.75 57.31 C-25.25 53.64 -29.66 49.87 -34 46 C-33.67 44.68 -33.34 43.36 -33 42 C-32.34 42 -31.68 42 -31 42 C-29.38 44 -29.38 44 -28 46 C-26.51 45.5 -26.51 45.5 -25 45 C-24.01 45 -23.02 45 -22 45 C-22 46.98 -22 48.96 -22 51 C-20.68 51 -19.36 51 -18 51 C-14.33 51 -10.67 51 -7 51 C-6.67 52.32 -6.34 53.64 -6 55 C-4.02 55 -2.04 55 0 55 C0 47.08 0 39.16 0 31 C-0.66 31 -1.32 31 -2 31 C-3.07 27.78 -2.8 27.1 -2 24 C-2.33 23.34 -2.66 22.68 -3 22 C-2.34 22 -1.68 22 -1 22 C-0.67 14.74 -0.34 7.48 0 0 Z " fill="#635A83" transform="translate(348,299)"/>
<path d="M0 0 C0.33 0 0.66 0 1 0 C1.26 25.08 0.9 50.12 0 75.19 C-0.02 75.86 -0.05 76.52 -0.07 77.21 C-0.37 85.48 -0.68 93.74 -1 102 C1.31 102.66 3.62 103.32 6 104 C6 103.34 6 102.68 6 102 C6.66 102 7.32 102 8 102 C8.33 100.35 8.66 98.7 9 97 C10.49 96.5 10.49 96.5 12 96 C12 93.36 12 90.72 12 88 C12.33 88 12.66 88 13 88 C13 91.63 13 95.26 13 99 C16.96 98.01 16.96 98.01 21 97 C20.34 98.32 19.68 99.64 19 101 C17.68 101 16.36 101 15 101 C15.66 102.65 16.32 104.3 17 106 C14.64 108.36 13.22 108.49 10 109 C9.67 109.99 9.34 110.98 9 112 C9.91 111.94 10.81 111.88 11.75 111.81 C15.29 112.02 16.45 112.65 19 115 C12.66 115.67 7.99 114.01 3 110 C-1.81 104.42 -2.72 100.76 -2.56 93.5 C-2.56 92.56 -2.56 91.63 -2.55 90.67 C-2.54 87.59 -2.49 84.52 -2.44 81.44 C-2.42 79.29 -2.4 77.13 -2.38 74.98 C-2.14 49.98 -1.1 24.98 0 0 Z " fill="#241D3D" transform="translate(140,272)"/>
<path d="M0 0 C0.33 0.66 0.66 1.32 1 2 C1.99 1.67 2.98 1.34 4 1 C3.96 1.74 3.92 2.49 3.88 3.25 C4.01 6.2 4.67 7.42 6 10 C8.12 15.8 9.26 20.84 9 27 C9.33 27.33 9.66 27.66 10 28 C10.15 29.34 10.24 30.69 10.3 32.04 C10.34 32.91 10.38 33.77 10.42 34.66 C10.46 35.62 10.5 36.57 10.54 37.55 C10.58 38.54 10.62 39.53 10.67 40.55 C10.8 43.8 10.93 47.06 11.06 50.31 C11.11 51.41 11.15 52.51 11.2 53.64 C12 73.44 12.25 93.19 12 113 C11.67 113 11.34 113 11 113 C10.97 112.11 10.95 111.22 10.92 110.3 C10.83 106.92 10.73 103.53 10.63 100.15 C10.59 98.7 10.54 97.25 10.5 95.8 C10.29 88.32 10.02 80.86 9.48 73.39 C9.04 67.15 8.87 60.93 8.76 54.67 C8.44 37.51 6.78 21.41 0.73 5.21 C0 3 0 3 0 0 Z " fill="#262040" transform="translate(367,179)"/>
<path d="M0 0 C0.33 0 0.66 0 1 0 C2.6 17.87 3.2 35.62 3.19 53.56 C3.19 54.54 3.19 55.52 3.19 56.53 C3.19 59.33 3.18 62.14 3.17 64.94 C3.17 65.78 3.17 66.62 3.16 67.49 C3.13 71.49 2.81 75.07 2 79 C2.33 79.66 2.66 80.32 3 81 C2 82.95 2 82.95 0.56 85.12 C-0.15 86.21 -0.15 86.21 -0.87 87.32 C-1.24 87.87 -1.62 88.43 -2 89 C-2.66 88.67 -3.32 88.34 -4 88 C-3.57 87.23 -3.57 87.23 -3.14 86.45 C0.98 77.87 0.51 69.24 0.39 59.96 C0.38 58.23 0.38 56.49 0.37 54.76 C0.36 50.22 0.32 45.69 0.27 41.16 C0.23 36.52 0.22 31.88 0.2 27.24 C0.15 18.16 0.08 9.08 0 0 Z " fill="#241D3F" transform="translate(379,299)"/>
<path d="M0 0 C0.33 0 0.66 0 1 0 C1.11 18.76 1.05 37.49 0.43 56.25 C0.06 67.36 -0.09 78.45 0.04 89.57 C0.08 94.84 -0.06 99.81 -1 105 C-3.51 101.2 -3.25 97.37 -3.17 92.99 C-3.16 92.2 -3.15 91.41 -3.14 90.59 C-3.03 81.42 -2.69 72.25 -2.34 63.09 C-2.28 61.25 -2.21 59.42 -2.14 57.58 C-1.97 52.82 -1.79 48.05 -1.61 43.29 C-1.43 38.4 -1.25 33.51 -1.07 28.62 C-0.71 19.08 -0.36 9.54 0 0 Z " fill="#9087AA" transform="translate(125,273)"/>
<path d="M0 0 C1.35 2.7 1 5.01 1 8 C0.36 8.29 -0.28 8.58 -0.94 8.88 C-3.15 9.83 -3.15 9.83 -4 12 C-4.66 12 -5.32 12 -6 12 C-6 12.76 -6 13.53 -6 14.31 C-6 16.21 -6 18.1 -6 20 C-6.99 20 -7.98 20 -9 20 C-8.34 20.33 -7.68 20.66 -7 21 C-7 23.31 -7 25.62 -7 28 C-7.66 27.01 -8.32 26.02 -9 25 C-10.66 27.98 -11.4 30.65 -12 34 C-13 37 -13 37 -14 39 C-14.66 39 -15.32 39 -16 39 C-16.33 39.99 -16.66 40.98 -17 42 C-16.45 36.35 -15.4 31.34 -13.5 26 C-13.25 25.28 -12.99 24.56 -12.73 23.81 C-9.88 16.11 -5.89 5.89 0 0 Z " fill="#26213D" transform="translate(161,166)"/>
<path d="M0 0 C1.18 3.67 1.07 7.17 1 11 C0.34 11 -0.32 11 -1 11 C-0.34 12.32 0.32 13.64 1 15 C1.33 15 1.66 15 2 15 C2.33 17.64 2.66 20.28 3 23 C4.32 22.67 5.64 22.34 7 22 C8.12 23.69 8.12 23.69 9 26 C8.12 28.75 8.12 28.75 7 31 C1.69 26.43 -1.52 21.26 -2.32 14.18 C-2.42 9.09 -2.05 4.74 0 0 Z " fill="#1D1736" transform="translate(189,224)"/>
<path d="M0 0 C0.33 0 0.66 0 1 0 C1.17 5.85 1.33 11.71 1.48 17.56 C1.54 19.55 1.59 21.54 1.65 23.53 C1.73 26.39 1.81 29.26 1.88 32.13 C1.91 33.01 1.93 33.89 1.96 34.8 C2.08 39.67 1.85 44.2 1 49 C-1.4 45.29 -1.26 41.7 -1.19 37.44 C-1.18 36.68 -1.17 35.92 -1.17 35.14 C-1.02 23.42 -0.49 11.71 0 0 Z " fill="#6F688B" transform="translate(123,329)"/>
<path d="M0 0 C0.99 0.66 1.98 1.32 3 2 C1.67 3.33 0.33 4.67 -1 6 C-0.34 6.66 0.32 7.32 1 8 C0.01 8.5 0.01 8.5 -1 9 C-1 9.66 -1 10.32 -1 11 C-2.65 11 -4.3 11 -6 11 C-6 11.99 -6 12.98 -6 14 C-6.99 14 -7.98 14 -9 14 C-9.1 14.64 -9.21 15.28 -9.31 15.94 C-9.54 16.62 -9.77 17.3 -10 18 C-10.99 18.33 -11.98 18.66 -13 19 C-11.58 14.94 -9.61 11.82 -7.06 8.38 C-6.37 7.43 -5.68 6.49 -4.97 5.52 C-3.4 3.52 -1.86 1.73 0 0 Z " fill="#D9D2EC" transform="translate(157,147)"/>
<path d="M0 0 C7.8 7.25 7.8 7.25 8.25 13.5 C8.25 17.01 8.17 20.5 8 24 C7.67 24 7.34 24 7 24 C6.95 23.23 6.9 22.46 6.85 21.66 C6.78 20.66 6.7 19.66 6.62 18.62 C6.56 17.63 6.49 16.63 6.41 15.6 C6.24 12.84 6.24 12.84 4 11 C2.98 10.35 2.98 10.35 1.94 9.69 C-0.52 7.55 -0.76 6.21 -1 3 C-0.67 2.01 -0.34 1.02 0 0 Z " fill="#292343" transform="translate(232,217)"/>
<path d="M0 0 C2.7 2.65 3.01 4.1 3.34 7.94 C3.34 9.53 3.32 11.12 3.29 12.7 C3.29 13.54 3.28 14.38 3.28 15.24 C3.26 17.91 3.23 20.58 3.19 23.25 C3.17 25.06 3.16 26.87 3.15 28.69 C3.11 33.13 3.06 37.56 3 42 C2.67 42 2.34 42 2 42 C1.97 41.12 1.95 40.24 1.92 39.33 C1.83 36.01 1.73 32.68 1.63 29.36 C1.58 27.93 1.54 26.5 1.5 25.07 C1.26 16.69 0.9 8.35 0 0 Z " fill="#3B3556" transform="translate(374,203)"/>
<path d="M0 0 C0.33 0 0.66 0 1 0 C1.18 16.89 1.18 16.89 0 24 C-0.33 24 -0.66 24 -1 24 C-1 21.36 -1 18.72 -1 16 C-2.65 16.33 -4.3 16.66 -6 17 C-5.34 16.67 -4.68 16.34 -4 16 C-3.34 12.97 -3.34 12.97 -3 10 C-2.34 10 -1.68 10 -1 10 C-0.67 6.7 -0.34 3.4 0 0 Z " fill="#AFA8C9" transform="translate(141,229)"/>
<path d="M0 0 C-0.33 1.98 -0.66 3.96 -1 6 C1.31 6 3.62 6 6 6 C6 6.33 6 6.66 6 7 C0.72 7 -4.56 7 -10 7 C-7 5 -7 5 -5 5 C-5.33 4.01 -5.66 3.02 -6 2 C-2.25 0 -2.25 0 0 0 Z " fill="#CBC6E1" transform="translate(253,112)"/>
<path d="M0 0 C0.33 0 0.66 0 1 0 C1.33 2.97 1.66 5.94 2 9 C2.99 8.67 3.98 8.34 5 8 C3.25 12.88 3.25 12.88 1 14 C0.34 13.67 -0.32 13.34 -1 13 C-1 14.32 -1 15.64 -1 17 C-1.99 17.33 -2.98 17.66 -4 18 C-3.8 17.45 -3.59 16.91 -3.38 16.35 C-1.41 10.85 -0.46 5.82 0 0 Z " fill="#9991B5" transform="translate(240,232)"/>
<path d="M0 0 C0.33 0 0.66 0 1 0 C1.25 3.79 1.47 7.58 1.69 11.38 C1.76 12.46 1.83 13.54 1.91 14.65 C1.96 15.68 2.02 16.71 2.07 17.77 C2.13 18.73 2.19 19.68 2.25 20.66 C2.17 21.43 2.08 22.2 2 23 C1.01 23.66 0.02 24.32 -1 25 C-1.14 16.61 -0.75 8.36 0 0 Z " fill="#797197" transform="translate(137,354)"/>
<path d="M0 0 C1.11 4.05 1.34 8.07 1.56 12.25 C1.61 13 1.65 13.74 1.69 14.51 C1.8 16.34 1.9 18.17 2 20 C0.13 16.59 -0.99 13.09 -2.12 9.38 C-2.48 8.23 -2.83 7.08 -3.2 5.9 C-4 3 -4 3 -4 1 C-3.34 1 -2.68 1 -2 1 C-1.67 1.66 -1.34 2.32 -1 3 C-0.67 2.01 -0.34 1.02 0 0 Z " fill="#231D3D" transform="translate(343,190)"/>
<path d="M0 0 C-0.33 1.32 -0.66 2.64 -1 4 C-4.3 4.66 -7.6 5.32 -11 6 C-11 5.34 -11 4.68 -11 4 C-10.34 3.67 -9.68 3.34 -9 3 C-9.99 2.34 -10.98 1.68 -12 1 C-7.95 0.02 -4.16 -0.08 0 0 Z " fill="#C5BEDC" transform="translate(244,134)"/>
<path d="M0 0 C5.61 0 11.22 0 17 0 C17 0.99 17 1.98 17 3 C15.35 3.66 13.7 4.32 12 5 C11.67 4.01 11.34 3.02 11 2 C7.37 1.67 3.74 1.34 0 1 C0 0.67 0 0.34 0 0 Z " fill="#B0A8C9" transform="translate(189,203)"/>
<path d="M0 0 C2.39 0.58 4.67 1.22 7 2 C7.62 3.81 7.62 3.81 8 6 C8.19 6.74 8.37 7.49 8.56 8.25 C8.78 9.12 8.78 9.12 9 10 C8.34 9.67 7.68 9.34 7 9 C7 8.34 7 7.68 7 7 C6.4 6.73 5.8 6.46 5.19 6.19 C3 5 1.59 3.9 0 2 C0 1.34 0 0.68 0 0 Z " fill="#292243" transform="translate(312,154)"/>
<path d="M0 0 C2.44 1.25 2.44 1.25 4.44 4.25 C-0.25 3.68 -4.91 3.06 -9.56 2.25 C-3.33 -0.97 -3.33 -0.97 0 0 Z " fill="#2B2742" transform="translate(281.5625,103.75)"/>
<path d="M0 0 C4.75 0.88 4.75 0.88 7 2 C7 2.66 7 3.32 7 4 C10.3 4 13.6 4 17 4 C17 4.33 17 4.66 17 5 C10.18 5.33 5.08 5.24 -1 2 C-0.67 1.34 -0.34 0.68 0 0 Z " fill="#262040" transform="translate(277,257)"/>
<path d="M0 0 C2 2 2 2 2.23 3.88 C2.22 4.62 2.21 5.37 2.2 6.13 C2.19 6.94 2.18 7.74 2.18 8.57 C2.16 9.42 2.14 10.26 2.12 11.12 C2.12 11.97 2.11 12.82 2.1 13.7 C2.07 15.8 2.04 17.9 2 20 C1.67 20 1.34 20 1 20 C1 17.36 1 14.72 1 12 C0.34 12 -0.32 12 -1 12 C-0.67 8.04 -0.34 4.08 0 0 Z " fill="#272141" transform="translate(155,222)"/>
<path d="M0 0 C0 3 0 3 -1.06 5.06 C-1.37 5.7 -1.68 6.34 -2 7 C-1.67 7.66 -1.34 8.32 -1 9 C-2.81 9.69 -2.81 9.69 -5 10 C-5.99 9.01 -6.98 8.02 -8 7 C-5.36 4.69 -2.72 2.38 0 0 Z " fill="#D7D1EB" transform="translate(174,130)"/>
<path d="M0 0 C0.66 0.66 1.32 1.32 2 2 C4.66 2.57 7.29 2.74 10 3 C9.67 3.99 9.34 4.98 9 6 C10.98 6 12.96 6 15 6 C15 6.33 15 6.66 15 7 C8.93 7.51 5.23 6.04 0 3 C0 2.01 0 1.02 0 0 Z " fill="#231C3F" transform="translate(240,383)"/>
<path d="M0 0 C5.03 0.46 8.15 2.99 12 6 C11.34 6.66 10.68 7.32 10 8 C9.34 8 8.68 8 8 8 C8 7.34 8 6.68 8 6 C7.34 6 6.68 6 6 6 C5 5 4 4 3 3 C2.01 2.67 1.02 2.34 0 2 C0 1.34 0 0.68 0 0 Z " fill="#251F3F" transform="translate(220,210)"/>
<path d="M0 0 C3.3 0 6.6 0 10 0 C6.93 2.98 5.54 3.96 1.19 4.25 C0.14 4.17 -0.92 4.09 -2 4 C-1.34 2.68 -0.68 1.36 0 0 Z " fill="#221B3B" transform="translate(209,209)"/>
<path d="M0 0 C0.33 0 0.66 0 1 0 C2.12 6.75 2.12 6.75 1 9 C0.34 9 -0.32 9 -1 9 C-1.33 11.31 -1.66 13.62 -2 16 C-3.38 12.23 -2.6 9.55 -1.56 5.75 C-1.28 4.67 -0.99 3.59 -0.69 2.48 C-0.46 1.66 -0.24 0.84 0 0 Z " fill="#B8B1D0" transform="translate(132,191)"/>
<path d="M0 0 C0.33 0 0.66 0 1 0 C1 5.28 1 10.56 1 16 C0.67 16 0.34 16 0 16 C-0.14 14.93 -0.29 13.86 -0.44 12.75 C-0.86 9.23 -0.86 9.23 -1.69 6.88 C-2.14 4.18 -1.14 2.42 0 0 Z " fill="#A29CBB" transform="translate(140,256)"/>
<path d="M0 0 C1.18 3.67 1.07 7.17 1 11 C0.34 11 -0.32 11 -1 11 C-1 12.98 -1 14.96 -1 17 C-1.33 17 -1.66 17 -2 17 C-2.37 5.48 -2.37 5.48 0 0 Z " fill="#3E3757" transform="translate(189,224)"/>
<path d="M0 0 C0.66 0.66 1.32 1.32 2 2 C1.81 4.06 1.81 4.06 1 6 C0.01 6.33 -0.98 6.66 -2 7 C-2 7.99 -2 8.98 -2 10 C-2.66 10 -3.32 10 -4 10 C-3.52 8.52 -3.04 7.04 -2.56 5.56 C-2.3 4.74 -2.03 3.92 -1.75 3.07 C-1 1 -1 1 0 0 Z " fill="#CAC5E1" transform="translate(141,170)"/>
<path d="M0 0 C2 3 2 3 1.62 5.69 C1.42 6.45 1.21 7.21 1 8 C-0.98 6.35 -2.96 4.7 -5 3 C-4.34 2.34 -3.68 1.68 -3 1 C-3 1.66 -3 2.32 -3 3 C-2.34 3 -1.68 3 -1 3 C-0.67 2.01 -0.34 1.02 0 0 Z " fill="#221C3A" transform="translate(341,134)"/>
<path d="M0 0 C-1.33 4 -3.5 4.84 -7 7 C-7.33 6.01 -7.66 5.02 -8 4 C-7.34 4 -6.68 4 -6 4 C-5.67 3.01 -5.34 2.02 -5 1 C-3 0 -3 0 0 0 Z " fill="#231F39" transform="translate(177,127)"/>
<path d="M0 0 C-1.65 1.32 -3.3 2.64 -5 4 C-7.48 3.01 -7.48 3.01 -10 2 C-6.2 -0.53 -4.32 -1.34 0 0 Z " fill="#272240" transform="translate(287,210)"/>
<path d="M0 0 C0.66 0 1.32 0 2 0 C2 1.32 2 2.64 2 4 C1.34 4 0.68 4 0 4 C0.33 5.32 0.66 6.64 1 8 C-3.88 3.25 -3.88 3.25 -5 1 C-3.68 1.33 -2.36 1.66 -1 2 C-0.67 1.34 -0.34 0.68 0 0 Z " fill="#241E3D" transform="translate(352,147)"/>
<path d="M0 0 C6.4 -0.37 6.4 -0.37 9.44 1.5 C9.95 2 10.47 2.49 11 3 C3.57 3.29 3.57 3.29 0 1 C0 0.67 0 0.34 0 0 Z " fill="#271E42" transform="translate(148,384)"/>
<path d="M0 0 C0.66 0.33 1.32 0.66 2 1 C1.67 1.33 1.34 1.66 1 2 C1.66 2.66 2.32 3.32 3 4 C2.26 4.29 1.51 4.58 0.75 4.88 C-1.54 5.81 -3.78 6.89 -6 8 C-4.02 5.36 -2.04 2.72 0 0 Z " fill="#2B2344" transform="translate(196,215)"/>
<path d="M0 0 C-3.28 2.19 -6.21 3 -10 4 C-9.19 2.06 -9.19 2.06 -8 0 C-4.71 -1.1 -3.29 -0.8 0 0 Z " fill="#ACA4C6" transform="translate(209,209)"/>
<path d="M0 0 C0.33 0 0.66 0 1 0 C1.29 0.95 1.58 1.9 1.88 2.88 C2.77 6.05 2.77 6.05 5 8 C4.01 8 3.02 8 2 8 C1.67 8.99 1.34 9.98 1 11 C0 10 0 10 -0.1 7.71 C-0.09 6.8 -0.07 5.88 -0.06 4.94 C-0.05 4.02 -0.04 3.1 -0.04 2.15 C-0.02 1.44 -0.01 0.73 0 0 Z " fill="#3C3554" transform="translate(187,192)"/>
<path d="M0 0 C0.33 0 0.66 0 1 0 C2.12 6.75 2.12 6.75 1 9 C0.34 9 -0.32 9 -1 9 C-1.33 9.99 -1.66 10.98 -2 12 C-1 3.43 -1 3.43 0 0 Z " fill="#403A57" transform="translate(146,196)"/>
<path d="M0 0 C-0.66 0 -1.32 0 -2 0 C-2 0.66 -2 1.32 -2 2 C-4.88 2.62 -4.88 2.62 -8 3 C-8.66 2.34 -9.32 1.68 -10 1 C-3.71 -1.43 -3.71 -1.43 0 0 Z " fill="#9B93B4" transform="translate(297,195)"/>
<path d="M0 0 C0.83 3.31 1.09 5.66 1 9 C-0.32 9.33 -1.64 9.66 -3 10 C-2.01 6.7 -1.02 3.4 0 0 Z " fill="#BFBAD5" transform="translate(136,180)"/>
<path d="M0 0 C0.33 1.32 0.66 2.64 1 4 C-2 6 -2 6 -6 7 C-4.02 4.69 -2.04 2.38 0 0 Z " fill="#403C57" transform="translate(176,148)"/>
<path d="M0 0 C1.32 0 2.64 0 4 0 C4 0.66 4 1.32 4 2 C5.32 2.33 6.64 2.66 8 3 C7.67 3.99 7.34 4.98 7 6 C5.83 5.19 4.66 4.38 3.5 3.56 C2.85 3.11 2.2 2.66 1.53 2.19 C1.03 1.8 0.52 1.41 0 1 C0 0.67 0 0.34 0 0 Z " fill="#AFA7C9" transform="translate(313,137)"/>
<path d="M0 0 C0.33 1.32 0.66 2.64 1 4 C-1.64 3.34 -4.28 2.68 -7 2 C-4.35 0.54 -3.11 0 0 0 Z " fill="#251F3E" transform="translate(285,136)"/>
</svg>
